Coordinates
version=1
nRows=17
nColumns=40
inDegrees=yes

Units are S.I. units (second, meters, Newtons, ...)
If the header above contains a line with 'inDegrees', this indicates whether rotational values are in degrees (yes) or radians (no).

endheader
time	pelvis_tilt	pelvis_list	pelvis_rotation	pelvis_tx	pelvis_ty	pelvis_tz	hip_flexion_r	hip_adduction_r	hip_rotation_r	knee_angle_r	knee_angle_r_beta	ankle_angle_r	subtalar_angle_r	mtp_angle_r	hip_flexion_l	hip_adduction_l	hip_rotation_l	knee_angle_l	knee_angle_l_beta	ankle_angle_l	subtalar_angle_l	mtp_angle_l	lumbar_extension	lumbar_bending	lumbar_rotation	arm_flex_r	arm_add_r	arm_rot_r	elbow_flex_r	pro_sup_r	wrist_flex_r	wrist_dev_r	arm_flex_l	arm_add_l	arm_rot_l	elbow_flex_l	pro_sup_l	wrist_flex_l	wrist_dev_l
      3.98000000	    -30.04078422	     -2.86448675	     -1.23152510	     -0.45369036	      0.66207535	     -0.93177428	     89.07318603	    -11.04507861	      2.17523685	     96.09693290	      1.67720788	     35.61043222	      0.00000000	      0.00000000	     92.43251165	    -19.78649732	     10.06230797	     95.02108320	      1.65843076	     33.08659942	      0.00000000	      0.00000000	    -19.92153318	      2.74138704	      3.93271565	     12.46739446	    -54.66170572	     77.76240636	     91.51676907	     86.27755249	      0.00000000	      0.00000000	    -13.43904316	    -50.05275025	     43.97911480	     98.25921395	     87.65583193	      0.00000000	      0.00000000
      3.98500000	    -30.09897172	     -2.88169182	     -1.26168209	     -0.45386064	      0.66204237	     -0.93169553	     89.13706100	    -10.95526777	      2.22087505	     96.09113920	      1.67710676	     35.59452887	      0.00000000	      0.00000000	     92.48805565	    -19.77363696	     10.13404152	     94.97854717	      1.65768837	     33.12473922	      0.00000000	      0.00000000	    -19.95677818	      2.73345916	      4.21521588	     11.74163086	    -54.75585248	     76.96820902	     91.60816432	     86.44057572	      0.00000000	      0.00000000	    -12.83573446	    -50.17398418	     44.63145197	     98.21090325	     87.60435361	      0.00000000	      0.00000000
      3.99000000	    -30.21217039	     -2.87305024	     -1.28741394	     -0.45415868	      0.66191039	     -0.93169390	     89.26644641	    -10.90748385	      2.27085254	     96.04651518	      1.67632792	     35.58459036	      0.00000000	      0.00000000	     92.62331244	    -19.76544841	     10.14400292	     94.97105695	      1.65755764	     33.08469430	      0.00000000	      0.00000000	    -19.94293460	      2.73605814	      3.99788268	     12.29866596	    -54.74979406	     77.55085822	     91.65872789	     86.44782238	      0.00000000	      0.00000000	    -13.43471222	    -50.07206185	     44.00215843	     98.29636280	     87.60430103	      0.00000000	      0.00000000
      3.99500000	    -30.33212919	     -2.91839530	     -1.26798885	     -0.45446334	      0.66186330	     -0.93173515	     89.38641874	    -10.90883101	      2.23034241	     96.00582938	      1.67561782	     35.45142426	      0.00000000	      0.00000000	     92.78445198	    -19.71545544	     10.21850504	     94.93119504	      1.65686192	     33.02427921	      0.00000000	      0.00000000	    -19.92106059	      2.78823102	      4.25771365	     11.46249974	    -54.86838334	     76.67087357	     91.78821625	     85.84548723	      0.00000000	      0.00000000	    -12.84028789	    -50.16205909	     44.63327693	     98.24803947	     87.79319955	      0.00000000	      0.00000000
      4.00000000	    -30.36801481	     -2.93779537	     -1.27673800	     -0.45456519	      0.66193430	     -0.93175006	     89.40372611	    -10.89957619	      2.20128497	     95.96131790	      1.67484095	     35.49358956	      0.00000000	      0.00000000	     92.81830497	    -19.69585975	     10.26504927	     94.90271447	      1.65636484	     33.05352291	      0.00000000	      0.00000000	    -19.96938602	      2.80150677	      4.46393866	     10.91118095	    -54.94522969	     76.01018686	     91.84355240	     86.85449054	      0.00000000	      0.00000000	    -12.34376996	    -50.24548615	     45.22716594	     98.22093051	     87.52124737	      0.00000000	      0.00000000
      4.00500000	    -30.40312375	     -2.86787060	     -1.30981778	     -0.45462644	      0.66199903	     -0.93175291	     89.46289199	    -10.87884459	      2.27983206	     95.95365325	      1.67470718	     35.50599763	      0.00000000	      0.00000000	     92.80857850	    -19.70579481	     10.18288514	     94.87485921	      1.65587867	     33.04503514	      0.00000000	      0.00000000	    -20.00527500	      2.74924430	      3.79047322	     12.73650656	    -54.75226255	     78.05277307	     91.74861014	     86.42336884	      0.00000000	      0.00000000	    -13.99668044	    -49.94385648	     43.41952251	     98.29471163	     87.62308554	      0.00000000	      0.00000000
      4.01000000	    -30.45739653	     -2.80205279	     -1.36753888	     -0.45465885	      0.66204108	     -0.93172985	     89.52989851	    -10.83177265	      2.34627788	     95.92370727	      1.67418452	     35.51024836	      0.00000000	      0.00000000	     92.81929865	    -19.74161675	     10.11819305	     94.87162360	      1.65582220	     33.03414125	      0.00000000	      0.00000000	    -20.08065368	      2.63805418	      4.01945837	     11.54061311	    -54.81135730	     76.60439213	     91.79805873	     85.91009626	      0.00000000	      0.00000000	    -14.02768382	    -49.93031266	     43.17749388	     98.43483415	     87.84571421	      0.00000000	      0.00000000
      4.01500000	    -30.44693042	     -2.77739756	     -1.38425614	     -0.45475710	      0.66232866	     -0.93174941	     89.50922158	    -10.79952404	      2.39588195	     95.87005121	      1.67324805	     35.43645684	      0.00000000	      0.00000000	     92.75451548	    -19.74444330	     10.07502478	     94.81612662	      1.65485359	     33.09751443	      0.00000000	      0.00000000	    -20.10169427	      2.62870525	      3.99421191	     12.14299481	    -54.81159258	     77.39312284	     91.81998953	     86.49979611	      0.00000000	      0.00000000	    -13.61583915	    -50.00814775	     43.83762054	     98.28907863	     87.60087507	      0.00000000	      0.00000000
      4.02000000	    -30.41409117	     -2.71009823	     -1.41062861	     -0.45486427	      0.66273722	     -0.93175439	     89.47551826	    -10.79587981	      2.43805209	     95.81322881	      1.67225631	     35.41148562	      0.00000000	      0.00000000	     92.65581019	    -19.74982014	      9.99726036	     94.76275062	      1.65392201	     33.09936542	      0.00000000	      0.00000000	    -20.22657923	      2.55380183	      3.82847220	     12.58826768	    -54.76071437	     77.84298290	     91.82448176	     86.45877024	      0.00000000	      0.00000000	    -14.01160554	    -49.93954173	     43.34789621	     98.33775774	     87.61199699	      0.00000000	      0.00000000
      4.02500000	    -30.46042674	     -2.60641537	     -1.44309423	     -0.45504170	      0.66293400	     -0.93180625	     89.55147364	    -10.79608605	      2.51836843	     95.75852749	      1.67130159	     35.34113721	      0.00000000	      0.00000000	     92.63392416	    -19.75341252	      9.87230609	     94.70584507	      1.65292882	     33.07043011	      0.00000000	      0.00000000	    -20.25203637	      2.43682400	      3.82201198	     12.53942337	    -54.76201215	     77.79616438	     91.82977741	     86.51220258	      0.00000000	      0.00000000	    -14.05557830	    -49.94140024	     43.25963952	     98.37773247	     87.61110254	      0.00000000	      0.00000000
      4.03000000	    -30.56552137	     -2.85282483	     -1.57396739	     -0.45519972	      0.66294953	     -0.93123866	     89.56028246	    -10.54566279	      2.29635227	     95.68431868	      1.67000640	     35.31077993	      0.00000000	      0.00000000	     92.87797368	    -19.93770996	     10.18418154	     94.69846588	      1.65280003	     32.96763848	      0.00000000	      0.00000000	    -20.16958357	      2.60807690	      4.86658926	     10.26929569	    -55.01609202	     75.49666803	     92.03370610	     85.12402346	      0.00000000	      0.00000000	    -11.88762054	    -50.33376738	     45.72289286	     98.23179767	     87.86042587	      0.00000000	      0.00000000
      4.03500000	    -30.49772453	     -2.68905173	     -1.46863052	     -0.45510001	      0.66331086	     -0.93169392	     89.50993447	    -10.72931433	      2.44314048	     95.66642696	      1.66969413	     35.34400772	      0.00000000	      0.00000000	     92.67361744	    -19.77782351	      9.98408544	     94.66204980	      1.65216445	     33.07352126	      0.00000000	      0.00000000	    -20.32887650	      2.50526836	      3.80308853	     12.58118096	    -54.73036662	     77.85345748	     91.83808933	     86.45080828	      0.00000000	      0.00000000	    -14.26544883	    -49.87603617	     42.94367300	     98.38413126	     87.62597247	      0.00000000	      0.00000000
      4.04000000	    -30.59796354	     -2.80503570	     -1.49887023	     -0.45526628	      0.66333959	     -0.93159312	     89.56387270	    -10.67222743	      2.31270967	     95.60747877	      1.66866529	     35.31352896	      0.00000000	      0.00000000	     92.83492557	    -19.81258201	     10.11304681	     94.60730657	      1.65120900	     32.96534503	      0.00000000	      0.00000000	    -20.26720977	      2.61458346	      3.85999148	     12.50285663	    -54.75324510	     77.78795059	     91.86004244	     86.40773991	      0.00000000	      0.00000000	    -14.34757111	    -49.86672822	     42.86864743	     98.41505225	     87.63607123	      0.00000000	      0.00000000
      4.04500000	    -30.56027902	     -2.71900067	     -1.55008524	     -0.45517990	      0.66372321	     -0.93155982	     89.53238213	    -10.65878600	      2.36954851	     95.57213795	      1.66804848	     35.20389810	      0.00000000	      0.00000000	     92.71769744	    -19.86075138	     10.00611919	     94.57462643	      1.65063862	     32.95892321	      0.00000000	      0.00000000	    -20.35373959	      2.49996061	      4.08183971	     11.93972976	    -54.76222407	     77.19894960	     91.90041592	     86.24557832	      0.00000000	      0.00000000	    -13.79819994	    -49.97983813	     43.47088871	     98.35858446	     87.70889742	      0.00000000	      0.00000000
      4.05000000	    -30.61071562	     -2.71584834	     -1.54771183	     -0.45525787	      0.66392782	     -0.93160372	     89.54885088	    -10.66507863	      2.35893561	     95.50493581	      1.66687558	     35.27858436	      0.00000000	      0.00000000	     92.73629733	    -19.85919978	      9.97447374	     94.51482957	      1.64959497	     32.97783518	      0.00000000	      0.00000000	    -20.34822472	      2.50867535	      3.84104394	     12.42803250	    -54.70958610	     77.70920915	     91.83293821	     86.42636061	      0.00000000	      0.00000000	    -14.49361698	    -49.83864641	     42.68126004	     98.42818933	     87.64391380	      0.00000000	      0.00000000
      4.05500000	    -30.58875307	     -2.56354537	     -1.57201681	     -0.45514711	      0.66433501	     -0.93171812	     89.54182499	    -10.68695002	      2.49719436	     95.45998279	      1.66609100	     35.22753036	      0.00000000	      0.00000000	     92.58406034	    -19.86753452	      9.76960651	     94.45771060	      1.64859805	     32.99834864	      0.00000000	      0.00000000	    -20.40638992	      2.34479972	      3.79440460	     12.41437054	    -54.64774654	     77.71226459	     91.76721664	     86.40284807	      0.00000000	      0.00000000	    -14.54704410	    -49.81828756	     42.61230564	     98.40479602	     87.64214602	      0.00000000	      0.00000000
      4.06000000	    -30.63775644	     -2.49839720	     -1.60247384	     -0.45518308	      0.66450234	     -0.93175890	     89.59706915	    -10.68570322	      2.54770292	     95.41812820	      1.66536050	     35.17904371	      0.00000000	      0.00000000	     92.57829693	    -19.87583509	      9.70073538	     94.41859061	      1.64791528	     32.96141828	      0.00000000	      0.00000000	    -20.37858798	      2.26899799	      3.92961307	     11.96912579	    -54.68744259	     77.27180122	     91.80965769	     86.04708620	      0.00000000	      0.00000000	    -14.27560810	    -49.88692793	     42.90708146	     98.39965973	     87.73215760	      0.00000000	      0.00000000
